<?xml version="1.0" ?><svg enable-background="new 0 0 515.91 728.5" height="50" id="Layer_1" version="1.1" viewBox="0 0 512.00003 512" width="512" xml:space="preserve" xmlns="http://www.w3.org/2000/svg" xmlns:cc="http://creativecommons.org/ns#" xmlns:dc="http://purl.org/dc/elements/1.1/" xmlns:inkscape="http://www.inkscape.org/namespaces/inkscape" xmlns:rdf="http://www.w3.org/1999/02/22-rdf-syntax-ns#" xmlns:sodipodi="http://sodipodi.sourceforge.net/DTD/sodipodi-0.dtd" xmlns:svg="http://www.w3.org/2000/svg"><defs id="defs7"/><g id="g4311"><path d="m 0,-1.5e-5 0,512.000025 512.00003,0 0,-512.000025 L 0,-1.5e-5 z" id="path5060" style="fill:#0192cb;fill-opacity:1;fill-rule:nonzero;stroke:none"/><path d="m 386.50147,361.05998 -12.4269,-65.48851 c 0,0 72.81191,-141.56561 72.65531,-205.60341 0,0 6.5237,-33.3161 -47.36871,-33.3161 0,0 -33.6036,-6.4783 -42.8081,28.7913 l -12.0168,63.324 c 0,0 -17.9307,-92.1153 -122.26201,-92.1153 0,0 -126.351807,-20.8624 -156.002011,173.43861 0,0 -29.6966,225.80471 126.796611,225.80471 0,0 75.51831,-1.6302 118.31141,-73.2361 0,0 8.4175,73.2361 83.7251,73.2361 0,0 48.75271,4.8405 51.62451,-51.2914 0.015,-0.023 9.94,-48.9553 -26.49061,-35.9911 0,0 -21.624,12.5957 -33.7378,-7.5528 z m -187.16881,14.352 c -55.0723,0 -42.6428,-124.77571 -42.6428,-124.77571 10.2507,-122.96051 79.4292,-122.24511 79.4292,-122.24511 54.80661,-2.1615 57.81241,151.45241 57.81241,151.45241 -45.55271,93.76841 -93.39491,97.01451 -94.59881,95.56841 l 0,0 z" id="app.net" style="fill:#ffffff;stroke:none"/></g></svg>